<?xml version="1.0" encoding="UTF-8" standalone="no"?>
<!-- Created with Inkscape (http://www.inkscape.org/) -->
<svg
   xmlns:dc="http://purl.org/dc/elements/1.1/"
   xmlns:cc="http://creativecommons.org/ns#"
   xmlns:rdf="http://www.w3.org/1999/02/22-rdf-syntax-ns#"
   xmlns:svg="http://www.w3.org/2000/svg"
   xmlns="http://www.w3.org/2000/svg"
   xmlns:xlink="http://www.w3.org/1999/xlink"
   xmlns:sodipodi="http://sodipodi.sourceforge.net/DTD/sodipodi-0.dtd"
   xmlns:inkscape="http://www.inkscape.org/namespaces/inkscape"
   width="80"
   height="24"
   id="svg2"
   sodipodi:version="0.32"
   inkscape:version="0.46"
   version="1.0"
   sodipodi:docname="logo.svg"
   inkscape:output_extension="org.inkscape.output.svg.inkscape"
   inkscape:export-filename="/home/benjamin/Work/obrowser/tutorial/img/logo.png"
   inkscape:export-xdpi="700"
   inkscape:export-ydpi="700"
   style="display:inline">
  <defs
     id="defs4">
    <linearGradient
       id="linearGradient3273">
      <stop
         id="stop3281"
         offset="0"
         style="stop-color:#00c3f6;stop-opacity:1;" />
      <stop
         style="stop-color:#0dc9ff;stop-opacity:0;"
         offset="1"
         id="stop3277" />
    </linearGradient>
    <linearGradient
       id="linearGradient3165">
      <stop
         style="stop-color:#c6c6c6;stop-opacity:1;"
         offset="0"
         id="stop3167" />
      <stop
         style="stop-color:#e7e7e7;stop-opacity:1;"
         offset="1"
         id="stop3169" />
    </linearGradient>
    <inkscape:perspective
       sodipodi:type="inkscape:persp3d"
       inkscape:vp_x="0 : 526.18109 : 1"
       inkscape:vp_y="0 : 1000 : 0"
       inkscape:vp_z="744.09448 : 526.18109 : 1"
       inkscape:persp3d-origin="372.04724 : 350.78739 : 1"
       id="perspective10" />
    <linearGradient
       inkscape:collect="always"
       xlink:href="#linearGradient3165"
       id="linearGradient3173"
       x1="12.124355"
       y1="24"
       x2="32.908966"
       y2="36"
       gradientUnits="userSpaceOnUse" />
    <linearGradient
       inkscape:collect="always"
       xlink:href="#linearGradient3273"
       id="linearGradient3585"
       x1="43.914894"
       y1="0.73758864"
       x2="43.914894"
       y2="20.947643"
       gradientUnits="userSpaceOnUse"
       gradientTransform="matrix(1,0,0,0.9717514,-0.1134752,1.726169)" />
    <filter
       inkscape:collect="always"
       id="filter3696">
      <feGaussianBlur
         inkscape:collect="always"
         stdDeviation="0.64854275"
         id="feGaussianBlur3698" />
    </filter>
    <filter
       inkscape:collect="always"
       id="filter3700"
       x="-0.18565555"
       width="1.3713111"
       y="-0.19223636"
       height="1.3844727">
      <feGaussianBlur
         inkscape:collect="always"
         stdDeviation="0.64854275"
         id="feGaussianBlur3702" />
    </filter>
    <filter
       inkscape:collect="always"
       id="filter3704"
       x="-0.15173317"
       width="1.3034663"
       y="-0.20621879"
       height="1.4124376">
      <feGaussianBlur
         inkscape:collect="always"
         stdDeviation="0.64854275"
         id="feGaussianBlur3706" />
    </filter>
    <filter
       inkscape:collect="always"
       id="filter3708"
       x="-0.22603443"
       width="1.4520689"
       y="-0.19660658"
       height="1.3932132">
      <feGaussianBlur
         inkscape:collect="always"
         stdDeviation="0.64854275"
         id="feGaussianBlur3710" />
    </filter>
    <filter
       inkscape:collect="always"
       id="filter3712"
       x="-0.20500368"
       width="1.4100074"
       y="-0.18069018"
       height="1.3613805">
      <feGaussianBlur
         inkscape:collect="always"
         stdDeviation="0.64854275"
         id="feGaussianBlur3714" />
    </filter>
    <filter
       inkscape:collect="always"
       id="filter3716"
       x="-0.28361186"
       width="1.5672237"
       y="-0.19877844"
       height="1.3975569">
      <feGaussianBlur
         inkscape:collect="always"
         stdDeviation="0.64854275"
         id="feGaussianBlur3718" />
    </filter>
    <filter
       inkscape:collect="always"
       id="filter3756"
       x="-0.18563405"
       width="1.3712682"
       y="-0.29054219"
       height="1.5810844">
      <feGaussianBlur
         inkscape:collect="always"
         stdDeviation="2.1142494"
         id="feGaussianBlur3758" />
    </filter>
    <filter
       inkscape:collect="always"
       id="filter3760"
       x="-0.60523707"
       width="2.2104743"
       y="-0.62669057"
       height="2.253381">
      <feGaussianBlur
         inkscape:collect="always"
         stdDeviation="2.1142494"
         id="feGaussianBlur3762" />
    </filter>
    <filter
       inkscape:collect="always"
       id="filter3764"
       x="-0.49465016"
       width="1.9893003"
       y="-0.67227328"
       height="2.3445466">
      <feGaussianBlur
         inkscape:collect="always"
         stdDeviation="2.1142494"
         id="feGaussianBlur3766" />
    </filter>
    <filter
       inkscape:collect="always"
       id="filter3768"
       x="-0.73687232"
       width="2.4737446"
       y="-0.64093745"
       height="2.2818749">
      <feGaussianBlur
         inkscape:collect="always"
         stdDeviation="2.1142494"
         id="feGaussianBlur3770" />
    </filter>
    <filter
       inkscape:collect="always"
       id="filter3772"
       x="-0.66831201"
       width="2.3366239"
       y="-0.58904999"
       height="2.1781001">
      <feGaussianBlur
         inkscape:collect="always"
         stdDeviation="2.1142494"
         id="feGaussianBlur3774" />
    </filter>
    <filter
       inkscape:collect="always"
       id="filter3776"
       x="-0.92457467"
       width="2.8491492"
       y="-0.6480177"
       height="2.2960353">
      <feGaussianBlur
         inkscape:collect="always"
         stdDeviation="2.1142494"
         id="feGaussianBlur3778" />
    </filter>
    <filter
       inkscape:collect="always"
       id="filter3871">
      <feGaussianBlur
         inkscape:collect="always"
         stdDeviation="0.69268121"
         id="feGaussianBlur3873" />
    </filter>
    <radialGradient
       inkscape:collect="always"
       xlink:href="#linearGradient3273"
       id="radialGradient3892"
       cx="42.326241"
       cy="-25.396614"
       fx="42.326241"
       fy="-25.396614"
       r="37.390625"
       gradientTransform="matrix(-1.0467528,8.2293145e-3,-3.5898658e-3,-0.4551345,86.54018,-7.1979707)"
       gradientUnits="userSpaceOnUse" />
  </defs>
  <sodipodi:namedview
     id="base"
     pagecolor="#ffffff"
     bordercolor="#666666"
     borderopacity="1.0"
     inkscape:pageopacity="0.0"
     inkscape:pageshadow="2"
     inkscape:zoom="8.8125"
     inkscape:cx="40"
     inkscape:cy="12"
     inkscape:document-units="px"
     inkscape:current-layer="layer3"
     showgrid="false"
     objecttolerance="1"
     gridtolerance="10000"
     showguides="true"
     inkscape:guide-bbox="true"
     inkscape:window-width="1280"
     inkscape:window-height="885"
     inkscape:window-x="0"
     inkscape:window-y="49" />
  <metadata
     id="metadata7">
    <rdf:RDF>
      <cc:Work
         rdf:about="">
        <dc:format>image/svg+xml</dc:format>
        <dc:type
           rdf:resource="http://purl.org/dc/dcmitype/StillImage" />
      </cc:Work>
    </rdf:RDF>
  </metadata>
  <g
     inkscape:groupmode="layer"
     id="layer3"
     inkscape:label="bitton"
     style="display:inline">
    <path
       style="fill:url(#radialGradient3892);fill-opacity:1;fill-rule:evenodd;stroke:none;stroke-width:1px;stroke-linecap:butt;stroke-linejoin:miter;stroke-opacity:1"
       d="M 29.03125,5.0228874 C 28.598432,5.0066778 28.148493,5.0256925 27.6875,5.053311 C 20.54211,5.481398 16.485663,13.255942 4.375,13.541474 L 3.1875,13.541474 L 3.1875,21.725399 L 77.96875,21.725399 L 77.96875,13.541474 L 77.625,13.541474 C 66.277483,13.541474 61.834885,5.2662754 55.59375,5.2662757 C 49.352615,5.2662757 47.312057,10.366207 43,10.255733 C 38.957448,10.152162 35.523521,5.266033 29.03125,5.0228874 z"
       id="path3885" />
  </g>
  <g
     inkscape:groupmode="layer"
     id="layer2"
     inkscape:label="titre"
     style="display:inline">
    <path
       style="opacity:1;fill:#000000;fill-opacity:1;stroke:#000000;stroke-width:0.80740285;stroke-linecap:round;stroke-linejoin:round;stroke-miterlimit:4;stroke-dasharray:none;stroke-opacity:1"
       d="M 23.837425,3.7860133 C 23.501446,3.8834373 23.179394,4.0235993 22.858252,4.1497063 C 22.781224,4.1935073 22.703966,4.2381913 22.634441,4.2895873 C 22.478986,4.4045063 22.313908,4.5937973 22.214795,4.7372103 C 21.955587,5.1122813 21.799921,5.5458943 21.711221,5.9681703 C 21.673656,6.1507423 21.627419,6.3160343 21.599315,6.4997213 C 21.41776,7.6863933 21.528256,8.8891533 21.515386,10.080698 C 21.519836,11.548607 21.535045,13.033108 21.515386,14.500965 C 20.525251,13.905988 19.657434,13.181096 19.025488,12.318808 C 18.905828,12.15553 18.826457,11.983472 18.717748,11.815233 C 18.505897,11.433539 18.322778,11.022158 18.214173,10.612249 C 18.192501,10.530452 18.170516,10.449659 18.158221,10.360461 L 18.410008,10.248556 C 18.389204,10.161328 18.356147,10.082241 18.326079,9.9967683 C 18.322017,9.9848633 18.251017,9.8157453 18.214173,9.8289103 C 17.549373,10.066474 17.423815,9.9821053 17.402858,10.332485 C 17.447287,10.954191 17.784577,11.540325 18.102268,12.094997 C 18.217403,12.262377 18.340044,12.408401 18.465961,12.570595 C 18.876739,13.099719 19.450954,13.676323 20.004662,14.109296 C 20.524,14.515393 20.793049,14.658933 21.375504,15.00454 C 21.420724,15.026434 21.470597,15.03797 21.515386,15.060493 C 21.514316,15.116232 21.516562,15.172612 21.515386,15.228351 C 21.493636,15.940818 21.466549,16.643422 21.40348,17.354556 C 21.373063,17.697533 21.338359,18.103219 21.263599,18.445634 C 21.230924,18.595287 21.163928,18.744818 21.123717,18.893256 C 20.995469,19.190529 20.998761,19.313523 20.788,19.564689 C 20.722494,19.642754 20.455763,19.726097 20.564189,19.760524 C 20.600224,19.771966 20.613381,19.770485 20.648118,19.760524 C 20.428105,19.83927 20.212841,19.917491 20.340378,19.87243 C 20.219985,19.90372 20.099232,19.931154 19.976685,19.956359 C 19.60586,20.032628 19.203765,20.061849 18.829654,19.984335 L 18.102268,20.403981 C 18.513732,20.46228 18.9292,20.428664 19.333229,20.348028 C 19.460185,20.322691 19.599832,20.295005 19.724898,20.264099 C 20.301451,20.088348 20.797154,19.845705 21.291575,19.536713 C 21.385186,19.47821 21.453825,19.366738 21.515386,19.284926 C 21.713038,19.022258 21.717384,18.948557 21.823126,18.641469 C 21.854528,18.493969 21.882379,18.342184 21.907055,18.193847 C 21.969463,17.818698 22.001205,17.482624 22.018961,17.102768 C 22.047047,16.501891 22.047997,15.913424 22.046937,15.31228 C 22.077607,15.325927 22.099723,15.355278 22.130866,15.368233 C 22.854454,15.669232 23.725527,15.891433 24.536835,15.955737 C 25.176942,16.00647 25.391315,15.963873 26.019583,15.899784 C 26.245316,15.848547 26.477089,15.809635 26.691016,15.731926 C 27.16697,15.559036 27.958417,15.22546 28.397575,14.892634 C 28.869233,14.535177 29.148488,14.097 29.348772,13.605721 C 29.392075,13.43919 29.465075,13.271262 29.488653,13.102146 C 29.578496,12.457758 29.364733,11.811032 28.90115,11.283682 C 28.787133,11.153982 28.663979,11.041823 28.537457,10.919989 C 28.386696,10.811215 28.250424,10.683366 28.089835,10.584272 C 27.386181,10.150075 26.521989,9.9118043 25.683866,9.7170053 C 25.59283,9.6945643 25.174536,9.6344863 25.096362,9.5491463 C 25.024597,9.4708043 25.265667,9.2937533 25.292197,9.2414063 C 25.427962,9.0838783 25.561499,8.9007173 25.683866,8.7378313 C 26.058717,8.2388653 26.350157,7.6994083 26.439228,7.1152023 C 26.448719,6.9563943 26.476381,6.7984233 26.467205,6.6396033 C 26.458159,6.4830393 26.424377,6.3171563 26.383276,6.1640053 C 26.222765,5.5659053 25.878913,5.0505973 25.376126,4.5973283 C 25.054416,4.3215583 24.782787,4.0858373 24.368976,3.8979183 C 24.264345,3.8504033 23.984691,3.7433103 23.837425,3.7860133 z M 23.193969,4.2056583 C 23.238042,4.2121493 23.357627,4.1957753 23.41778,4.2056583 C 23.515964,4.2217913 23.606543,4.2276383 23.697543,4.2616113 C 24.11749,4.4183843 24.405922,4.6481323 24.732669,4.9050683 C 24.845736,5.0124993 24.964419,5.1274713 25.068386,5.2407843 C 25.510164,5.7222743 25.795462,6.3151433 25.823748,6.9193673 C 25.83102,7.0747113 25.806747,7.2117903 25.795772,7.3669893 C 25.694072,7.9487503 25.406982,8.5010463 25.012433,8.9896193 C 24.867435,9.1691713 24.698383,9.3249673 24.536835,9.4931943 C 24.486097,9.5476743 24.445038,9.6050123 24.396953,9.6610523 C 24.330558,9.7384313 24.265817,9.7882563 24.341,9.8848633 C 24.458993,10.036479 24.834415,10.076404 25.012433,10.108674 C 25.874439,10.266955 26.755335,10.456775 27.474354,10.892013 C 27.633527,10.988364 27.77211,11.122019 27.921976,11.227729 C 28.044966,11.347823 28.17497,11.43573 28.285669,11.563446 C 28.741219,12.089017 28.937761,12.714653 28.845197,13.353934 C 28.821328,13.51878 28.776387,13.695251 28.733291,13.857509 C 28.529306,14.340613 28.227733,14.770779 27.754118,15.116445 C 27.6063,15.224331 27.416961,15.30768 27.250543,15.396209 C 27.018244,15.44041 26.807124,15.507045 26.57911,15.564068 C 26.333407,15.59304 26.071409,15.633698 25.823748,15.647997 C 24.736416,15.710774 23.631558,15.481941 22.662417,15.088469 C 22.44751,15.001215 22.253236,14.880942 22.046937,14.780729 C 22.036103,13.149623 22.020065,11.515985 22.018961,9.8848633 C 22.042868,8.6798203 21.987474,7.4441053 22.214795,6.2479343 C 22.249966,6.0628683 22.310119,5.9001153 22.354677,5.7163833 C 22.502942,5.1839223 22.699271,4.6576703 23.138016,4.2336353 C 23.151913,4.2202043 23.179697,4.2188903 23.193969,4.2056583 z M 36.175008,8.0943753 C 35.858828,8.0841753 35.538648,8.0782253 35.223811,8.1223513 C 35.084633,8.1436063 34.941885,8.1795043 34.804165,8.2062803 C 33.908422,8.3804353 33.112635,8.7607823 32.342244,9.1574773 C 32.082682,9.3074993 32.075262,9.2766583 31.838669,9.4372413 C 31.792923,9.4682903 31.742772,9.4885823 31.698787,9.5211703 C 31.685076,9.5028693 31.655897,9.4820373 31.642835,9.4652173 C 31.541935,9.3046543 31.482715,9.1341663 31.419024,8.9616423 C 31.411682,8.9422283 31.424841,8.9208803 31.419024,8.9056903 C 31.401105,8.8264233 31.391908,8.7311233 31.363071,8.6539023 C 31.154529,8.4217433 31.311499,8.5712703 30.551756,9.0175953 C 30.535418,9.0271933 30.547076,9.0576353 30.551756,9.0735483 C 30.574888,9.1522283 30.602061,9.2213123 30.635685,9.2973593 C 30.683709,9.4160313 30.745167,9.5453233 30.803543,9.6610523 C 30.828954,9.7433263 30.861053,9.8308053 30.887472,9.9128393 C 31.149433,10.75607 31.421176,11.579719 31.642835,12.430713 C 31.871899,13.181991 32.073051,13.937684 32.258315,14.6968 C 32.333632,14.994482 32.405257,15.294715 32.482126,15.592044 L 33.293441,15.256327 C 33.162348,14.978443 33.080703,14.67619 32.985701,14.38906 C 32.82786,13.937365 32.704611,13.473785 32.566055,13.018217 C 32.477915,12.728416 32.378466,12.439924 32.286291,12.150949 C 32.064131,11.375351 31.817848,10.60794 31.614858,9.8289103 C 31.760045,9.7601193 31.91644,9.7005883 32.06248,9.6330763 C 32.313843,9.4349573 32.56475,9.2168123 32.845819,9.0455723 C 32.910386,9.0062343 32.974979,8.9706463 33.041653,8.9336663 C 33.102149,8.9780643 33.293441,8.8320053 33.405346,8.7937843 C 33.65473,8.7086083 33.926459,8.6245173 34.188685,8.5699733 C 34.324364,8.5417523 34.471077,8.5366953 34.608331,8.5140203 C 35.214483,8.4267653 35.806868,8.4377073 36.398819,8.5699733 C 36.557419,8.6030693 36.717844,8.6568303 36.846441,8.7378313 L 37.601803,8.3741393 C 37.457277,8.2855633 37.276372,8.2089263 37.098228,8.1783043 C 36.788801,8.1168783 36.491187,8.1045743 36.175008,8.0943753 z M 40.203606,9.0175953 C 39.80636,9.0183113 39.303832,9.1614603 39.140504,9.4652173 C 38.933322,9.5634563 38.703608,9.6392493 38.497047,9.7449813 C 38.319765,9.8357273 38.10733,10.013034 37.965496,10.13665 C 37.877808,10.213075 37.796109,10.308238 37.713708,10.388438 C 37.638821,10.481078 37.557165,10.571794 37.489897,10.668201 C 37.331022,10.895897 37.258716,11.06365 37.154181,11.311658 C 37.04718,11.565513 36.943998,11.776339 36.874417,12.039044 C 36.839941,12.169211 36.81942,12.327638 36.790488,12.45869 C 36.706892,13.090163 36.671249,13.750359 36.93037,14.361083 C 36.975169,14.466671 37.043452,14.566378 37.098228,14.668823 C 37.243144,14.865129 37.314187,14.976905 37.54585,15.116445 C 37.885918,15.321283 38.392558,15.39718 38.804787,15.396209 C 38.998189,15.395754 39.199601,15.381682 39.392291,15.368233 C 39.593193,15.332155 39.781959,15.302215 39.979795,15.256327 C 40.340974,15.17255 40.907501,14.981177 41.238732,14.836682 C 41.745475,14.615623 42.425232,14.331656 42.889338,13.99739 C 43.033926,13.893252 43.146882,13.774642 43.281008,13.661674 C 43.385477,13.539949 43.49769,13.426595 43.588748,13.297981 C 43.845963,12.934682 43.956559,12.513278 43.924464,12.094997 C 43.896708,11.733272 43.828274,11.649225 43.672677,11.311658 C 43.490969,11.026659 43.410771,10.868953 43.169102,10.612249 C 42.86265,10.286734 42.4823,10.016063 42.078023,9.7729573 C 41.950746,9.6964203 41.817321,9.6214763 41.686354,9.5491463 C 41.398876,9.4138383 41.100192,9.2656343 40.79111,9.1574773 L 40.958968,9.0735483 C 40.7302,9.0088383 40.532083,9.0126343 40.315512,9.0455723 C 40.277091,9.0389163 40.242665,9.0224553 40.203606,9.0175953 z M 39.895866,9.4652173 C 39.945171,9.4768123 39.987495,9.4799133 40.035748,9.4931943 C 40.381397,9.5883303 40.72791,9.7355073 41.042897,9.8848633 C 41.174734,9.9547883 41.306493,10.006316 41.434567,10.080698 C 41.839344,10.315781 42.223524,10.597371 42.525645,10.919989 C 42.762411,11.172818 42.849797,11.339686 43.02922,11.619398 C 43.169828,11.940097 43.228766,12.033193 43.253031,12.374761 C 43.281871,12.780679 43.169959,13.171205 42.917315,13.521792 C 42.827596,13.646292 42.712314,13.76779 42.609574,13.885485 C 41.931268,14.445466 42.518462,13.993736 41.742307,14.500965 C 41.170903,14.722591 40.611612,14.92669 39.979795,15.00454 C 39.79672,15.016826 39.60397,15.032823 39.420267,15.032516 C 39.261534,15.032252 39.101023,15.026744 38.944669,15.00454 C 38.571303,14.951517 38.240147,14.826406 37.993472,14.584894 C 37.917419,14.510432 37.86304,14.441924 37.797638,14.361083 C 37.742761,14.262286 37.675281,14.155224 37.629779,14.053343 C 37.362417,13.454702 37.396438,12.80022 37.489897,12.178926 C 37.521391,12.04839 37.537349,11.916936 37.573827,11.787257 C 37.702104,11.331237 37.918431,10.79057 38.217283,10.388438 C 38.288049,10.293216 38.362705,10.227861 38.441094,10.13665 C 38.661901,9.9339643 38.717716,9.8583293 38.972645,9.6890283 C 38.995967,9.6735403 39.043401,9.6520823 39.084551,9.6330763 C 39.060681,9.7312113 39.086732,9.8158633 39.112527,9.9128393 L 39.895866,9.5771233 C 39.88821,9.5420853 39.896526,9.4998483 39.895866,9.4652173 z"
       id="path4125"
       sodipodi:nodetypes="csssssccsssccssccsssssssssssssccssssssscsscsscsssssssscssssccssssscssssssssscscsssccsssccsscssssscssssscsccsssccssssssccscccsssssssssssssssssscsssccsccsssscssccssssssssssssccc" />
    <path
       style="opacity:1;fill:#000000;fill-opacity:1;stroke:#000000;stroke-width:0.80571967;stroke-linecap:round;stroke-linejoin:round;stroke-miterlimit:4;stroke-dasharray:none;stroke-opacity:1"
       id="path3239"
       d="M 11.180917,9.7204603 C 11.035532,9.7571393 10.882921,9.7852163 10.745376,9.8474493 C 10.636771,9.8965883 10.075434,10.207936 10.94069,9.7345253 C 10.372159,10.11193 10.126247,10.576046 9.8366471,11.175056 C 9.6690621,11.58171 9.4879981,12.004284 9.4498981,12.448413 C 9.4299791,12.680615 9.4519541,12.842227 9.4700001,13.072462 C 9.5374061,13.613786 9.8224271,14.104147 10.240868,14.453889 C 10.348789,14.544091 10.468762,14.618809 10.582708,14.701269 C 10.708873,14.771076 10.82998,14.85093 10.961203,14.910691 C 11.582203,15.1935 12.354868,15.316806 13.033042,15.324381 C 13.224135,15.326516 13.414981,15.310054 13.605951,15.30289 C 14.132381,15.269649 14.648846,15.161167 15.125915,14.929818 C 15.267321,14.861245 15.420084,14.800879 15.532387,14.690942 C 15.592084,14.632502 15.291073,14.849506 15.293264,14.765994 C 15.296822,14.630388 15.457041,14.5497 15.53893,14.441552 C 15.689915,14.127965 15.772682,14.022898 15.811197,13.665788 C 15.887399,12.95925 15.656294,12.241072 15.440347,11.581049 C 15.12425,10.823694 14.718856,10.087871 14.142414,9.4950743 C 14.059674,9.4099863 13.967568,9.3345383 13.880146,9.2542693 C 13.534019,8.9673063 13.133481,8.7751953 12.679477,8.8222843 C 12.542757,8.8480123 12.508479,8.8476103 12.379923,8.8981973 C 12.334595,8.9160323 12.205668,8.9849933 12.247595,8.9601983 C 13.139271,8.4328823 12.734048,8.6654693 12.550969,8.8493423 C 12.529063,8.8793273 12.507156,8.9093133 12.485251,8.9392983 L 11.837734,9.2222613 C 11.858548,9.1887863 11.879362,9.1553103 11.900176,9.1218343 C 12.234623,8.7346873 12.737769,8.4790493 13.24189,8.4077633 C 13.705534,8.3917043 14.108624,8.5960423 14.450895,8.9022453 C 15.154513,9.5847713 15.633396,10.363896 16.00147,11.272173 C 16.219465,11.923658 16.461106,12.68131 16.405856,13.378968 C 16.376866,13.745027 16.294029,13.854717 16.147112,14.178406 C 15.721894,14.786753 15.984743,14.500171 15.023857,15.102438 C 14.437716,15.469821 13.780099,15.649935 13.090817,15.679837 C 12.898047,15.68571 12.705333,15.700978 12.512505,15.697455 C 11.840337,15.685176 11.023343,15.55234 10.409052,15.270469 C 10.275802,15.209326 10.153304,15.127051 10.025431,15.055343 C 9.9076901,14.971346 9.7836961,14.895486 9.6722071,14.803351 C 9.2420068,14.447833 8.9355498,13.940112 8.8686528,13.384877 C 8.8534868,13.195527 8.8257498,12.936703 8.8394308,12.746939 C 8.8719788,12.29549 9.0651598,11.864973 9.2296158,11.451041 C 9.5141261,10.847008 9.7352681,10.374896 10.300534,9.9830463 C 10.75235,9.7163503 11.216557,9.3581393 11.76043,9.2994213 L 11.180917,9.7204603 z" />
    <path
       style="opacity:1;fill:#000000;fill-opacity:1;stroke:#000000;stroke-width:0.80571967;stroke-linecap:round;stroke-linejoin:round;stroke-miterlimit:4;stroke-dasharray:none;stroke-opacity:1"
       id="path3243"
       d="M 49.018621,8.6913803 C 48.52336,9.0283493 48.096687,9.4525633 47.68881,9.8879453 C 47.275679,10.420034 46.853927,10.95137 46.511905,11.533593 C 46.302525,11.89002 46.268392,11.989823 46.102579,12.355957 C 45.855491,12.971191 45.738513,13.472195 45.879029,14.123879 C 46.131099,14.665981 46.651199,14.933705 47.227154,15.019504 C 47.401878,15.045532 47.579481,15.045755 47.755644,15.058881 C 48.626648,15.045438 49.439734,14.773807 50.196265,14.355712 C 50.203784,14.351556 50.178904,14.337768 50.185518,14.332287 C 50.320628,14.220297 50.466024,14.121336 50.606278,14.015861 C 50.932406,13.726858 51.292238,13.389599 51.375248,12.938488 C 51.589771,12.841432 51.796271,12.724216 52.018819,12.647321 C 52.040924,12.639684 52.015261,12.694001 52.01515,12.717388 C 52.014965,12.756551 52.015241,12.795774 52.01793,12.834844 C 52.032357,13.044461 52.085703,13.241941 52.141006,13.443698 C 52.310234,13.995707 52.587406,14.338943 53.093485,14.606975 C 53.028463,14.84272 53.610885,14.508046 53.520868,14.618531 C 53.443137,14.713938 53.290786,14.860826 53.192344,14.786976 C 53.101745,14.71901 53.37041,14.646011 53.449721,14.565158 C 53.705078,14.304839 53.686208,14.26664 53.852726,13.922338 C 53.897856,13.779714 53.954269,13.640181 53.988114,13.494466 C 54.129549,12.885526 54.115818,12.128608 53.928383,11.53033 C 53.87621,11.363795 53.797304,11.206848 53.731763,11.045108 C 53.388288,10.41071 52.97252,9.7782263 52.374233,9.3567513 L 52.96177,8.9856193 C 53.534703,9.4530753 53.952767,10.081119 54.294832,10.729888 C 54.363707,10.894075 54.446956,11.052947 54.501459,11.222448 C 54.688154,11.803067 54.707707,12.618878 54.582002,13.213714 C 54.550833,13.361204 54.496818,13.502925 54.454226,13.647529 C 54.398953,13.777038 54.358545,13.913954 54.288409,14.036054 C 54.21293,14.167459 53.95446,14.457757 53.824824,14.542463 C 53.600423,14.689091 53.113558,15.098353 52.715566,15.056769 C 52.645242,15.049421 52.582883,15.00785 52.516541,14.98339 C 52.005509,14.692724 51.719166,14.33656 51.538398,13.772084 C 51.466492,13.528076 51.404977,13.296301 51.381472,13.04334 C 51.379019,13.016937 51.349808,12.978759 51.372068,12.964348 C 51.576968,12.831688 51.805791,12.740259 52.022653,12.628215 C 51.882477,13.097826 51.584468,13.470476 51.205181,13.777492 C 50.392756,14.392222 49.481523,14.979872 48.487764,15.25304 C 47.922063,15.408541 47.807524,15.389849 47.231806,15.433482 C 47.050572,15.419665 46.867792,15.419392 46.688103,15.392031 C 46.079921,15.299424 45.545384,15.015031 45.271696,14.44953 C 45.12796,13.763923 45.244736,13.277429 45.503585,12.629626 C 45.671991,12.260731 45.710087,12.154558 45.919039,11.794818 C 46.257807,11.211583 46.680466,10.683176 47.081097,10.14255 C 47.470671,9.7133963 47.881739,9.2935983 48.354709,8.9554073 L 49.018621,8.6913803 z" />
    <path
       style="opacity:1;fill:#000000;fill-opacity:1;stroke:#000000;stroke-width:0.80571967;stroke-linecap:round;stroke-linejoin:round;stroke-miterlimit:4;stroke-dasharray:none;stroke-opacity:1"
       id="path3245"
       d="M 56.427037,14.665875 C 56.886863,14.936064 57.412721,15.031563 57.92791,15.140937 C 58.070734,15.160316 58.212576,15.189396 58.356384,15.199077 C 59.002422,15.242559 59.642182,15.14951 60.252617,14.93897 C 60.309053,14.919504 60.136363,14.966178 60.078235,14.979782 C 60.392088,14.832148 60.698188,14.65954 60.91327,14.379308 C 60.960758,14.317434 61.014178,14.254012 61.033148,14.178358 C 61.082137,13.982973 60.95886,13.824385 60.880314,13.663084 C 60.130953,12.683951 59.03543,12.058885 57.992385,11.439647 C 57.242486,10.955504 56.345736,10.638134 55.734779,9.9657703 C 55.387913,9.3460553 55.95328,9.1544263 56.447653,8.9631633 C 57.268226,8.7023023 58.176482,8.3225633 59.064002,8.3949203 C 59.268608,8.4302603 59.400205,8.5372363 59.515014,8.7014713 L 58.855661,8.9560273 C 58.749028,8.8104193 58.625221,8.7256133 58.440961,8.7008093 C 58.059584,8.6779183 57.68821,8.7435993 57.31622,8.8270183 C 57.178195,8.8579703 57.045536,8.9201793 56.904379,8.9293143 C 56.833202,8.9339193 57.034326,8.8704743 57.0993,8.8410553 C 56.667615,8.9979613 56.075606,9.1382853 56.375405,9.7107903 C 56.954253,10.385026 57.827292,10.717113 58.556238,11.1946 C 59.617107,11.822736 60.731226,12.453102 61.512803,13.429942 C 61.608781,13.613997 61.744988,13.780294 61.698967,14.005773 C 61.682327,14.087302 61.624554,14.155553 61.575278,14.222603 C 61.358228,14.517952 61.045741,14.702054 60.721192,14.857822 C 60.297289,15.015935 59.690898,15.272076 59.203059,15.383996 C 58.589901,15.524669 57.945935,15.52881 57.327603,15.425447 C 56.79619,15.312817 56.251813,15.215613 55.7716,14.948508 L 56.427037,14.665875 z" />
    <path
       style="opacity:1;fill:#000000;fill-opacity:1;stroke:#000000;stroke-width:0.80571967;stroke-linecap:round;stroke-linejoin:round;stroke-miterlimit:4;stroke-dasharray:none;stroke-opacity:1"
       id="path3255"
       d="M 62.639739,10.697298 C 63.37836,11.101721 64.250016,10.998014 65.055564,10.935947 C 65.977771,10.816423 66.880558,10.564491 67.70396,10.128581 C 67.726603,10.116594 67.610793,10.162902 67.628801,10.144679 C 67.734509,10.037706 67.859278,9.9514173 67.974517,9.8547873 C 68.040914,9.7469273 68.129111,9.6497553 68.173708,9.5312073 C 68.344731,9.0765973 68.064057,8.5549183 67.704217,8.2773963 C 67.604997,8.2008743 67.486856,8.1526783 67.378175,8.0903193 C 67.2577,8.0493983 67.140855,7.9956043 67.01675,7.9675543 C 66.469949,7.8439623 65.785578,7.9283993 65.26347,8.1182303 C 65.114709,8.1723173 64.974128,8.2466913 64.829456,8.3109213 C 64.872259,8.2879573 64.996126,8.2121083 64.957863,8.2420293 C 64.509307,8.5927913 64.615924,8.4180573 64.222728,8.8384613 C 64.075119,8.9962863 63.818586,9.3370653 63.711602,9.5318283 C 63.641451,9.6595373 63.591835,9.7974953 63.531951,9.9303293 C 63.428014,10.256635 63.354748,10.415382 63.336587,10.763531 C 63.311011,11.253807 63.420095,11.790605 63.603239,12.243331 C 63.673216,12.416314 63.769572,12.577417 63.852739,12.74446 C 64.382686,13.675089 65.222089,14.342238 66.17407,14.803378 C 66.375894,14.876116 66.598681,14.964796 66.81768,14.905474 C 66.857434,14.894706 66.964652,14.831098 66.928517,14.850863 C 66.361415,15.161049 66.274463,15.282914 66.468022,15.054796 C 66.480718,15.029762 66.493413,15.004727 66.506109,14.979693 L 67.15151,14.683229 C 67.140355,14.713618 67.1292,14.744008 67.118044,14.774397 C 66.91596,15.082558 67.052546,14.902778 66.373477,15.286142 C 66.142622,15.41647 65.825803,15.247803 65.615931,15.17006 C 64.67846,14.66991 63.834226,13.99307 63.296666,13.06124 C 63.210714,12.891884 63.111552,12.728608 63.038807,12.553172 C 62.849603,12.096876 62.728949,11.550388 62.745456,11.053941 C 62.757421,10.694105 62.828859,10.542185 62.933418,10.204901 C 62.990748,10.069075 63.036324,9.9276653 63.105407,9.7974223 C 63.171182,9.6734133 63.25412,9.5590443 63.336336,9.4452673 C 63.886348,8.6841083 64.504601,8.3510163 65.341581,7.9058363 C 65.488726,7.8435693 65.631908,7.7709473 65.783017,7.7190323 C 66.316418,7.5357763 67.016087,7.4587573 67.568735,7.5942853 C 67.695596,7.6253963 67.814421,7.6830803 67.937264,7.7274783 C 68.050864,7.7943293 68.174719,7.8462173 68.278065,7.9280323 C 68.650984,8.2232593 68.944499,8.7843773 68.782284,9.2611913 C 68.739214,9.3877903 68.648939,9.4930283 68.582268,9.6089473 C 68.463726,9.7101373 68.356397,9.8261733 68.226644,9.9125203 C 67.806573,10.192065 67.154447,10.586562 66.639914,10.79022 C 65.973263,11.054087 65.261332,11.206423 64.554054,11.306345 C 63.711883,11.37351 62.824443,11.475188 62.041146,11.084598 L 62.639739,10.697298 z" />
    <path
       style="opacity:1;fill:#000000;fill-opacity:1;stroke:#000000;stroke-width:0.80571967;stroke-linecap:round;stroke-linejoin:round;stroke-miterlimit:4;stroke-dasharray:none;stroke-opacity:1"
       id="path3259"
       d="M 71.082917,7.9560873 C 71.215479,8.6238393 71.408526,9.2770193 71.602262,9.9289473 C 71.938664,11.05018 72.268323,12.172806 72.546262,13.310133 C 72.636252,13.658045 72.711039,14.009744 72.803883,14.356935 C 72.840115,14.492424 72.877595,14.663899 72.891188,14.597524 C 72.681672,14.70097 72.48246,14.828631 72.262641,14.907861 C 72.237134,14.917055 72.257312,14.853897 72.254801,14.8269 C 72.25126,14.788839 72.247512,14.750794 72.244483,14.712689 C 72.23171,14.552046 72.225216,14.391244 72.219025,14.230246 C 72.180301,13.618903 72.251502,13.011801 72.336111,12.407329 C 72.470347,11.683475 72.590666,10.950137 72.87741,10.267505 C 73.051501,9.8530593 73.12127,9.7627703 73.343118,9.3879863 C 73.423333,9.2810193 73.497226,9.1690043 73.583763,9.0670843 C 73.900582,8.6939443 74.552984,8.2141793 74.999578,8.1639433 C 75.044643,8.1588743 75.090138,8.1689573 75.135418,8.1714623 L 74.564732,8.5850173 C 74.525113,8.5864773 74.48481,8.5819353 74.445872,8.5893973 C 74.380398,8.6019453 73.592784,8.8881503 74.673401,8.3996093 C 74.760099,8.3604143 74.515647,8.5066633 74.442996,8.5681043 C 74.184685,8.7865543 74.159965,8.8477673 73.940982,9.1233113 C 73.71298,9.4911643 73.635196,9.5882793 73.458021,9.9973383 C 73.166464,10.670477 73.044083,11.397067 72.926404,12.116418 C 72.849868,12.712103 72.795809,13.310095 72.838977,13.910989 C 72.848337,14.106301 72.857322,14.301832 72.884609,14.495664 C 72.888389,14.522513 72.918908,14.558987 72.897745,14.575936 C 72.70538,14.730005 72.485253,14.845783 72.279007,14.980707 C 72.23709,14.890378 72.221906,14.774489 72.202443,14.680645 C 72.128868,14.325902 72.058543,13.970442 71.975395,13.617749 C 71.719535,12.476282 71.392168,11.353411 71.034526,10.239834 C 70.830315,9.5938583 70.631342,8.9463273 70.452994,8.2928743 L 71.082917,7.9560873 z" />
  </g>
</svg>
